<?xml version="1.0" encoding="UTF-8" standalone="no"?><!DOCTYPE svg PUBLIC "-//W3C//DTD SVG 1.1//EN" "http://www.w3.org/Graphics/SVG/1.1/DTD/svg11.dtd"><svg width="200px" height="200px" version="1.1" xmlns="http://www.w3.org/2000/svg" xmlns:xlink="http://www.w3.org/1999/xlink" xml:space="preserve" xmlns:serif="http://www.serif.com/" style="fill-rule:evenodd;clip-rule:evenodd;stroke-linejoin:round;stroke-miterlimit:2;"><path fill="#EE82EE" d="M9.3,63.048l9.699,-48.338l5.406,0l-3.578,17.809c1.378,-1.749 2.968,-3.127 4.77,-4.134c1.961,-1.06 3.975,-1.59 6.042,-1.59c4.187,0 7.394,1.935 9.62,5.804c2.173,3.657 2.809,7.765 1.908,12.323c-1.007,5.247 -3.154,9.593 -6.44,13.039c-3.551,3.763 -7.685,5.645 -12.402,5.645c-1.908,0 -3.631,-0.583 -5.168,-1.749c-1.537,-1.166 -2.65,-2.677 -3.339,-4.532l-1.113,5.724l-5.406,0Zm9.063,-18.127c-0.689,3.445 -0.451,6.519 0.716,9.222c1.272,2.915 3.339,4.373 6.201,4.373c3.233,0 5.989,-1.405 8.268,-4.214c2.014,-2.438 3.392,-5.565 4.134,-9.381c0.636,-3.392 0.371,-6.387 -0.795,-8.984c-1.325,-2.862 -3.392,-4.293 -6.201,-4.293c-3.18,0 -5.91,1.352 -8.189,4.055c-2.014,2.438 -3.392,5.512 -4.134,9.222Zm21.759,21.305l4.373,-21.784l5.406,0l-4.293,21.148c-0.53,2.597 -0.186,4.929 1.034,6.996c1.325,2.173 3.154,3.26 5.486,3.26c2.862,0 5.38,-0.981 7.553,-2.942c2.12,-1.961 3.472,-4.399 4.055,-7.314l4.293,-21.148l5.486,0l-7.155,35.617l-5.486,0l0.954,-4.85c-1.378,1.749 -3.127,3.101 -5.247,4.055c-2.067,0.901 -4.267,1.352 -6.599,1.352c-3.445,0 -6.148,-1.511 -8.109,-4.532c-1.855,-2.915 -2.438,-6.201 -1.749,-9.858Zm29.669,43.566l9.699,-48.338l5.406,0l-3.578,17.809c1.378,-1.749 2.968,-3.127 4.77,-4.134c1.961,-1.06 3.975,-1.59 6.042,-1.59c4.187,0 7.394,1.935 9.62,5.804c2.173,3.657 2.809,7.765 1.908,12.323c-1.007,5.247 -3.154,9.593 -6.44,13.039c-3.551,3.763 -7.685,5.645 -12.402,5.645c-1.908,0 -3.631,-0.583 -5.168,-1.749c-1.537,-1.166 -2.65,-2.677 -3.339,-4.532l-1.113,5.724l-5.406,0Zm9.063,-18.127c-0.689,3.445 -0.451,6.519 0.716,9.222c1.272,2.915 3.339,4.373 6.201,4.373c3.233,0 5.989,-1.405 8.268,-4.214c2.014,-2.438 3.392,-5.565 4.134,-9.381c0.636,-3.392 0.371,-6.387 -0.795,-8.984c-1.325,-2.862 -3.392,-4.293 -6.201,-4.293c-3.18,0 -5.91,1.352 -8.189,4.055c-2.014,2.438 -3.392,5.512 -4.134,9.222Zm21.479,47.86l9.699,-48.338l5.406,0l-3.578,17.809c1.378,-1.749 2.968,-3.127 4.77,-4.134c1.961,-1.06 3.975,-1.59 6.042,-1.59c4.187,0 7.394,1.935 9.62,5.804c2.173,3.657 2.809,7.765 1.908,12.323c-1.007,5.247 -3.154,9.593 -6.44,13.039c-3.551,3.763 -7.685,5.645 -12.402,5.645c-1.908,0 -3.631,-0.583 -5.168,-1.749c-1.537,-1.166 -2.65,-2.677 -3.339,-4.532l-1.113,5.724l-5.406,0Zm9.063,-18.127c-0.689,3.445 -0.451,6.519 0.716,9.222c1.272,2.915 3.339,4.373 6.201,4.373c3.233,0 5.989,-1.405 8.268,-4.214c2.014,-2.438 3.392,-5.565 4.134,-9.381c0.636,-3.392 0.371,-6.387 -0.795,-8.984c-1.325,-2.862 -3.392,-4.293 -6.201,-4.293c-3.18,0 -5.91,1.352 -8.189,4.055c-2.014,2.438 -3.392,5.512 -4.134,9.222Zm41.847,47.86l-20.368,0l9.699,-48.338l6.042,0l-8.586,42.932l14.368,0c1.325,-4.484 3.439,-8.177 6.344,-11.082c3.644,-3.588 7.905,-5.382 12.783,-5.382c4.822,0 8.326,1.794 10.512,5.382c2.187,3.588 2.691,8.382 1.514,14.381l-0.42,1.934l-20.817,0l-0.036,0.173l-5.418,0c-0.687,3.788 -0.34,6.814 1.041,9.078c1.402,2.355 3.644,3.532 6.728,3.532c2.691,0 5.046,-0.701 7.064,-2.102c2.018,-1.402 3.364,-3.252 4.037,-5.551l5.719,0c-1.121,3.869 -3.308,6.952 -6.56,9.251c-3.196,2.299 -6.952,3.448 -11.269,3.448c-4.822,0 -8.326,-1.794 -10.512,-5.382c-1.924,-3.158 -2.546,-7.249 -1.865,-12.274Zm12.128,-5.303l14.967,0c0.336,-3.476 -0.196,-6.251 -1.598,-8.326c-1.458,-2.074 -3.56,-3.112 -6.307,-3.112c-2.803,0 -5.354,1.037 -7.653,3.112c-2.22,2.054 -3.836,4.795 -4.847,8.222l5.46,0l-0.021,0.103Z"/></svg>